<?xml version="1.0" encoding="utf-8"?>
<!-- Generator: Adobe Illustrator 25.0.0, SVG Export Plug-In . SVG Version: 6.00 Build 0)  -->
<svg version="1.1" id="Layer_1" xmlns="http://www.w3.org/2000/svg" xmlns:xlink="http://www.w3.org/1999/xlink" x="0px" y="0px"
	 viewBox="0 0 1948.5 1299" style="enable-background:new 0 0 1948.5 1299;" xml:space="preserve">
<style type="text/css">
	.st0{clip-path:url(#SVGID_2_);}
</style>
<g>
	<g>
		<path d="M974.25,988.78c-91.55,0-177.61-35.65-242.34-100.38c-64.73-64.73-100.38-150.8-100.38-242.34
			c0-91.55,35.65-177.61,100.38-242.34c64.73-64.73,150.8-100.38,242.34-100.38s177.61,35.65,242.34,100.38
			c64.73,64.73,100.38,150.8,100.38,242.34c0,91.55-35.65,177.61-100.38,242.34S1065.79,988.78,974.25,988.78z M974.25,314.02
			c-183.08,0-332.03,148.95-332.03,332.03s148.95,332.03,332.03,332.03s332.03-148.95,332.03-332.03S1157.33,314.02,974.25,314.02z"
			/>
	</g>
	<g>
		<g>
			<path d="M733.08,293.32l-7.67,5.13l-4.46-6.67l22.67-15.18l4.46,6.67l-7.67,5.13l26.79,40l-7.33,4.91L733.08,293.32z"/>
		</g>
		<g>
			<path d="M776.8,257.9l21.72-10.37l3.46,7.24l-13.76,6.57l6.39,13.4l10.93-5.22l3.46,7.24l-10.93,5.22l7.43,15.57l13.76-6.57
				l3.46,7.24l-21.72,10.37L776.8,257.9z"/>
		</g>
		<g>
			<path d="M834.73,233.52l8.43-2.62l14.31,45.96l13.87-4.32l2.39,7.66l-22.29,6.94L834.73,233.52z"/>
		</g>
		<g>
			<path d="M894.05,218.02l23.77-3.8l1.27,7.92l-15.05,2.4l2.34,14.66l11.96-1.91l1.27,7.92l-11.96,1.91l2.72,17.04l15.05-2.4
				l1.26,7.92l-23.77,3.8L894.05,218.02z"/>
		</g>
		<g>
			<path d="M955.67,253.88l-0.05-3.21l8.34-0.14l0.06,3.85c0.07,4.01,1.85,5.43,4.66,5.38c2.81-0.05,4.55-1.52,4.48-5.69
				c-0.08-4.65-1.89-7.59-7.75-12.55c-7.49-6.38-9.97-10.91-10.07-17.33c-0.14-8.83,4.35-14.03,12.93-14.17
				c8.58-0.14,12.92,4.93,13.07,13.91l0.04,2.33l-8.34,0.14l-0.05-2.89c-0.07-4.01-1.69-5.51-4.5-5.46
				c-2.81,0.05-4.39,1.6-4.33,5.45c0.07,4.09,1.96,7.03,7.82,11.99c7.49,6.38,9.89,10.83,10,17.81c0.15,9.15-4.42,14.36-13.09,14.5
				C960.23,267.93,955.81,262.87,955.67,253.88z"/>
		</g>
		<g>
			<path d="M1014.27,255.77l4.01-29.9c1.15-8.59,6.29-13.08,14.72-11.95c8.43,1.13,12.2,6.82,11.05,15.41l-0.79,5.88l-8.27-1.11
				l0.86-6.44c0.49-3.66-1.06-5.4-3.68-5.76c-2.62-0.35-4.58,0.93-5.07,4.58l-4.17,31.1c-0.49,3.66,1.07,5.32,3.69,5.68
				c2.62,0.35,4.57-0.85,5.06-4.5l1.14-8.51l8.27,1.11l-1.06,7.87c-1.15,8.59-6.29,13.08-14.72,11.95
				C1016.89,270.04,1013.12,264.36,1014.27,255.77z"/>
		</g>
		<g>
			<path d="M1072.17,265.72l8.32-28.33c2.53-8.62,8.52-12.21,16.83-9.77c8.31,2.44,11.41,8.7,8.88,17.32l-8.32,28.33
				c-2.53,8.62-8.52,12.21-16.84,9.77C1072.73,280.6,1069.64,274.34,1072.17,265.72z M1089.26,271.33l8.64-29.41
				c1.13-3.85-0.13-5.81-2.83-6.6c-2.69-0.79-4.82,0.17-5.95,4.02l-8.64,29.41c-1.13,3.85,0.13,5.81,2.83,6.6
				C1086,276.14,1088.12,275.17,1089.26,271.33z"/>
		</g>
		<g>
			<path d="M1147.75,246.57l11.77,5.52c7.99,3.75,9.84,10.02,6.03,18.15l-2.35,5.01c-3.81,8.14-9.82,10.73-17.81,6.98l-3.78-1.77
				l-9.7,20.71l-7.99-3.75L1147.75,246.57z M1148.79,274.98c2.54,1.19,4.47,0.68,6.17-2.96l2.83-6.03c1.7-3.63,0.87-5.44-1.68-6.63
				l-3.78-1.77l-7.32,15.62L1148.79,274.98z"/>
		</g>
		<g>
			<path d="M1205.25,276.92l20.06,13.31l-4.43,6.69l-12.7-8.43l-8.21,12.37l10.1,6.7l-4.43,6.69l-10.1-6.7l-9.54,14.38l12.7,8.43
				l-4.43,6.69l-20.06-13.31L1205.25,276.92z"/>
		</g>
	</g>
	<g>
		<g>
			<path d="M703.6,895.64l10.95,11.37l-45.03,60.12l-8.08-8.39l9.14-11.74l-0.15,0.15l-9.18-9.54l-11.92,8.54l-7.49-7.78
				L703.6,895.64z M676.71,939.18l22.8-29.15l-0.15-0.15l-29.92,21.75L676.71,939.18z"/>
		</g>
		<g>
			<path d="M715.36,983.11l2.44-3.46l9,6.35l-2.93,4.15c-3.05,4.33-2.25,7.23,0.78,9.36c3.03,2.14,6.03,1.92,9.21-2.57
				c3.54-5.02,3.9-9.56,1.52-19.41c-3.01-12.63-2.13-19.39,2.76-26.31c6.72-9.52,15.56-11.57,24.82-5.04
				c9.26,6.54,9.93,15.31,3.09,25l-1.77,2.51l-9-6.35l2.2-3.11c3.05-4.33,2.48-7.19-0.54-9.33c-3.03-2.14-5.92-1.72-8.85,2.44
				c-3.12,4.41-3.39,9.02-1,18.87c3.01,12.63,2.1,19.24-3.21,26.77c-6.96,9.86-15.89,11.86-25.23,5.26
				C709.28,1001.63,708.52,992.8,715.36,983.11z"/>
		</g>
		<g>
			<path d="M811.43,988.06l-11.07-5.07l4.41-9.63l32.74,15l-4.41,9.63l-11.07-5.07l-26.46,57.78l-10.59-4.85L811.43,988.06z"/>
		</g>
		<g>
			<path d="M870.91,999.83l16.78,4.06c11.73,2.84,15.46,9.51,12.77,20.63l-1.07,4.43c-1.79,7.41-5.3,11.57-10.85,12.41l-0.05,0.21
				c5.24,3.12,5.8,8.92,3.83,17.05l-3.06,12.66c-0.85,3.5-1.37,6.1-0.88,9.05l-11.53-2.79c-0.17-2-0.31-3.23,1.11-9.1l3.19-13.18
				c1.62-6.69,0.18-9.33-4.96-10.57l-3.91-0.95l-7.47,30.88l-11.32-2.74L870.91,999.83z M878.88,1034.45
				c4.22,1.02,7.24-0.21,8.64-5.97l1.34-5.56c1.24-5.15,0.04-7.83-3.97-8.8l-5.15-1.25l-4.98,20.59L878.88,1034.45z"/>
		</g>
		<g>
			<path d="M939.24,1069.62l1.57-38.94c0.48-11.85,6.99-18.37,18.42-17.91c11.43,0.46,17.4,7.48,16.92,19.34l-1.57,38.94
				c-0.48,11.85-6.99,18.37-18.42,17.91C944.74,1088.5,938.77,1081.48,939.24,1069.62z M962.92,1071.32l1.63-40.43
				c0.21-5.29-2.03-7.4-5.74-7.54c-3.7-0.15-6.11,1.77-6.33,7.06l-1.63,40.43c-0.21,5.29,2.03,7.4,5.74,7.55
				C960.3,1078.53,962.71,1076.61,962.92,1071.32z"/>
		</g>
		<g>
			<path d="M1014.9,1012.37l14.43-2.31l18.21,42.02l0.21-0.03l-7.02-43.81l10.25-1.64l11.74,73.2l-11.82,1.89l-22.37-51.22
				l-0.21,0.03l8.57,53.43l-10.25,1.64L1014.9,1012.37z"/>
		</g>
		<g>
			<path d="M1108.12,1049.51l-13.81-36.44c-4.2-11.09-0.76-19.64,9.93-23.7c10.7-4.05,18.94,0.07,23.14,11.16l13.81,36.44
				c4.2,11.09,0.76,19.64-9.93,23.7C1120.57,1064.73,1112.33,1060.61,1108.12,1049.51z M1130.57,1041.8l-14.34-37.83
				c-1.88-4.95-4.77-6.01-8.23-4.69c-3.47,1.31-4.93,4.02-3.06,8.97l14.34,37.83c1.88,4.95,4.77,6.01,8.23,4.69
				C1130.98,1049.46,1132.45,1046.75,1130.57,1041.8z"/>
		</g>
		<g>
			<path d="M1157.02,966.52l13.86-9.18l35.47,40.15l0.18-0.12l-23.1-48.34l13.87-9.18l40.92,61.82l-9.18,6.08l-30.98-46.8
				l-0.18,0.12l23.92,51.48l-8.12,5.38l-38.05-42.13l-0.18,0.12l30.98,46.8l-8.48,5.61L1157.02,966.52z"/>
		</g>
		<g>
			<path d="M1265.97,935.14l-40.43-19.39l8.6-8.92l25.11,13.16l0.15-0.15l-14.09-24.6l7.86-8.16l20.89,39.68l22.73,21.9l-8.08,8.39
				L1265.97,935.14z"/>
		</g>
	</g>
	<g>
		<path d="M631.62,863.07c-1.79,0-3.54-0.9-4.55-2.53c-39.81-64.3-60.86-138.46-60.86-214.49c0-47.05,7.94-93.17,23.6-137.09
			c15.14-42.44,37.13-81.9,65.36-117.27c1.84-2.31,5.21-2.69,7.52-0.84c2.31,1.84,2.69,5.21,0.84,7.52
			c-56.67,70.99-86.63,156.64-86.63,247.68c0,74.03,20.49,146.25,59.26,208.85c1.56,2.51,0.78,5.81-1.73,7.36
			C633.55,862.81,632.58,863.07,631.62,863.07z"/>
	</g>
	<g>
		<path d="M1316.88,863.07c-0.96,0-1.93-0.26-2.81-0.8c-2.51-1.56-3.29-4.85-1.73-7.36c38.77-62.6,59.26-134.82,59.26-208.85
			c0-91.04-29.96-176.69-86.63-247.68c-1.84-2.31-1.47-5.67,0.84-7.52c2.31-1.84,5.67-1.47,7.52,0.84
			c28.24,35.37,50.23,74.83,65.37,117.27c15.66,43.91,23.6,90.03,23.6,137.09c0,76.02-21.04,150.19-60.86,214.49
			C1320.42,862.17,1318.67,863.07,1316.88,863.07z"/>
	</g>
	<g>
		<defs>
			<circle id="SVGID_1_" cx="974.25" cy="646.05" r="332.45"/>
		</defs>
		<clipPath id="SVGID_2_">
			<use xlink:href="#SVGID_1_"  style="overflow:visible;"/>
		</clipPath>
		<g class="st0">
			<path d="M1184.69,619.87l-25.37-61.55c-3.99-9.69-16.1-13.88-27.04-9.37l-148.39,61.18c-8.67,3.57-13.13,12.69-9.97,20.37
				l1.36,3.31l-202.96,83.67c-10.12,4.17-15.32,14.81-11.63,23.76l0.14,0.33l-88.96,36.67c-7.02,2.89-10.63,10.28-8.07,16.49
				l2.73,6.62c2.56,6.21,10.33,8.9,17.35,6.01l88.96-36.68l0.14,0.33c3.69,8.95,14.88,12.83,25,8.66l112.21-46.26
				c6.76-2.79,14.78-0.59,18.63,5.63c1.26,2.04,2.77,3.91,4.49,5.57c4.86,4.71,6.61,11.79,5.22,18.41l-119.64,568.49
				c-0.67,3.18,0.88,6.58,3.91,7.75c3.85,1.49,7.95-0.85,8.77-4.72l115.35-548.11v595.19c0,3.24,2.22,6.25,5.42,6.77
				c4.08,0.66,7.61-2.47,7.61-6.42V786.45l115.35,548.11c0.82,3.87,4.92,6.21,8.77,4.72c3.02-1.18,4.57-4.58,3.9-7.76l-119.8-569.24
				c-1.32-6.27,0.41-12.97,5.08-17.36c5.61-5.27,9.11-12.74,9.11-21.04c0-2.48-0.32-4.89-0.91-7.18
				c-1.71-6.66,2.12-13.51,8.48-16.13l11.02-4.54l1.36,3.31c3.16,7.67,12.76,11,21.43,7.43l148.39-61.18
				C1183.05,641.06,1188.68,629.55,1184.69,619.87z"/>
		</g>
	</g>
	<g>
		<path d="M954.23,354.9c-1.77-0.78-3.54-1.17-5.31-1.47c-1.17-0.18-2.33-0.29-3.5-0.35c-0.06-1.17-0.17-2.33-0.35-3.5
			c-0.29-1.77-0.68-3.54-1.47-5.31c-0.78,1.77-1.17,3.54-1.47,5.31c-0.18,1.16-0.29,2.33-0.35,3.49c-1.17,0.06-2.33,0.17-3.5,0.35
			c-1.77,0.29-3.54,0.69-5.31,1.47c1.77,0.79,3.54,1.18,5.31,1.47c1.16,0.18,2.33,0.29,3.49,0.35c0.06,1.16,0.17,2.33,0.35,3.49
			c0.29,1.77,0.69,3.54,1.47,5.31c0.79-1.77,1.18-3.54,1.47-5.31c0.18-1.17,0.29-2.33,0.35-3.5c1.16-0.06,2.33-0.17,3.49-0.35
			C950.69,356.08,952.46,355.68,954.23,354.9z"/>
	</g>
	<g>
		<path d="M883.14,392.65c-1.77-0.78-3.54-1.17-5.31-1.47c-1.17-0.18-2.33-0.29-3.5-0.35c-0.06-1.17-0.17-2.33-0.35-3.5
			c-0.29-1.77-0.68-3.54-1.47-5.31c-0.78,1.77-1.17,3.54-1.47,5.31c-0.18,1.16-0.29,2.33-0.35,3.49c-1.17,0.06-2.33,0.17-3.5,0.35
			c-1.77,0.29-3.54,0.69-5.31,1.47c1.77,0.79,3.54,1.18,5.31,1.47c1.16,0.18,2.33,0.29,3.49,0.35c0.06,1.16,0.17,2.33,0.35,3.49
			c0.29,1.77,0.69,3.54,1.47,5.31c0.79-1.77,1.18-3.54,1.47-5.31c0.18-1.17,0.29-2.33,0.35-3.5c1.16-0.06,2.33-0.17,3.49-0.35
			C879.59,393.83,881.36,393.43,883.14,392.65z"/>
	</g>
	<g>
		<path d="M821.02,456.43c-3.54-1.56-7.09-2.35-10.63-2.93c-2.33-0.36-4.66-0.58-6.99-0.7c-0.12-2.33-0.34-4.66-0.7-6.99
			c-0.59-3.54-1.37-7.09-2.93-10.63c-1.56,3.54-2.35,7.09-2.93,10.63c-0.36,2.33-0.58,4.66-0.7,6.99c-2.33,0.12-4.66,0.34-6.99,0.7
			c-3.54,0.58-7.09,1.37-10.63,2.94c3.54,1.57,7.09,2.36,10.63,2.94c2.33,0.36,4.66,0.58,6.99,0.7c0.12,2.33,0.34,4.66,0.7,6.99
			c0.58,3.54,1.37,7.09,2.94,10.63c1.57-3.54,2.36-7.09,2.94-10.63c0.36-2.33,0.58-4.66,0.7-6.99c2.33-0.12,4.66-0.34,6.99-0.7
			C813.93,458.78,817.47,457.99,821.02,456.43z"/>
	</g>
	<g>
		<path d="M994.28,539.39c-1.16-0.51-2.31-0.77-3.47-0.96c-0.76-0.12-1.52-0.19-2.28-0.23c-0.04-0.76-0.11-1.52-0.23-2.28
			c-0.19-1.16-0.45-2.31-0.96-3.47c-0.51,1.16-0.77,2.31-0.96,3.47c-0.12,0.76-0.19,1.52-0.23,2.28c-0.76,0.04-1.52,0.11-2.28,0.23
			c-1.16,0.19-2.31,0.45-3.47,0.96c1.16,0.51,2.31,0.77,3.47,0.96c0.76,0.12,1.52,0.19,2.28,0.23c0.04,0.76,0.11,1.52,0.23,2.28
			c0.19,1.16,0.45,2.31,0.96,3.47c0.51-1.16,0.77-2.31,0.96-3.47c0.12-0.76,0.19-1.52,0.23-2.28c0.76-0.04,1.52-0.11,2.28-0.23
			C991.97,540.16,993.13,539.9,994.28,539.39z"/>
	</g>
	<g>
		<path d="M1278.97,603.17c-1.33-0.59-2.65-0.88-3.98-1.1c-0.87-0.14-1.74-0.22-2.62-0.26c-0.04-0.87-0.13-1.74-0.26-2.61
			c-0.22-1.33-0.51-2.65-1.1-3.98c-0.59,1.33-0.88,2.65-1.1,3.98c-0.14,0.87-0.22,1.74-0.26,2.61c-0.87,0.04-1.74,0.13-2.62,0.26
			c-1.33,0.22-2.65,0.51-3.98,1.1c1.33,0.59,2.65,0.88,3.98,1.1c0.87,0.13,1.74,0.22,2.61,0.26c0.04,0.87,0.13,1.74,0.26,2.61
			c0.22,1.33,0.51,2.65,1.1,3.98c0.59-1.33,0.88-2.65,1.1-3.98c0.14-0.87,0.22-1.74,0.26-2.62c0.87-0.04,1.74-0.13,2.61-0.26
			C1276.32,604.05,1277.64,603.76,1278.97,603.17z"/>
	</g>
	<g>
		<path d="M1241.39,482.46c-1.32-0.59-2.65-0.88-3.98-1.1c-0.87-0.14-1.74-0.22-2.61-0.26c-0.04-0.87-0.13-1.74-0.26-2.61
			c-0.22-1.33-0.51-2.65-1.1-3.98c-0.58,1.33-0.88,2.65-1.1,3.98c-0.14,0.87-0.22,1.74-0.26,2.61c-0.87,0.04-1.74,0.13-2.62,0.26
			c-1.33,0.22-2.65,0.51-3.98,1.1c1.32,0.59,2.65,0.88,3.98,1.1c0.87,0.13,1.74,0.22,2.61,0.26c0.04,0.87,0.13,1.74,0.26,2.61
			c0.22,1.33,0.51,2.65,1.1,3.98c0.59-1.33,0.88-2.65,1.1-3.98c0.14-0.87,0.22-1.74,0.26-2.62c0.87-0.04,1.74-0.13,2.61-0.26
			C1238.74,483.34,1240.06,483.04,1241.39,482.46z"/>
	</g>
	<g>
		<path d="M1019.24,435.17c-1.77-0.78-3.54-1.17-5.31-1.47c-1.17-0.18-2.33-0.29-3.5-0.35c-0.06-1.17-0.17-2.33-0.35-3.5
			c-0.29-1.77-0.68-3.54-1.47-5.31c-0.78,1.77-1.17,3.54-1.47,5.31c-0.18,1.16-0.29,2.33-0.35,3.49c-1.17,0.06-2.33,0.17-3.5,0.35
			c-1.77,0.29-3.54,0.69-5.31,1.47c1.77,0.79,3.54,1.18,5.31,1.47c1.16,0.18,2.33,0.29,3.49,0.35c0.06,1.16,0.17,2.33,0.35,3.49
			c0.29,1.77,0.69,3.54,1.47,5.31c0.79-1.77,1.18-3.54,1.47-5.31c0.18-1.17,0.29-2.33,0.35-3.5c1.16-0.06,2.33-0.17,3.49-0.35
			C1015.7,436.34,1017.47,435.95,1019.24,435.17z"/>
	</g>
	<g>
		<path d="M1184.84,435.17c-1.77-0.78-3.54-1.17-5.31-1.47c-1.17-0.18-2.33-0.29-3.5-0.35c-0.06-1.17-0.17-2.33-0.35-3.5
			c-0.29-1.77-0.68-3.54-1.47-5.31c-0.78,1.77-1.17,3.54-1.47,5.31c-0.18,1.16-0.29,2.33-0.35,3.49c-1.17,0.06-2.33,0.17-3.5,0.35
			c-1.77,0.29-3.54,0.69-5.31,1.47c1.77,0.79,3.54,1.18,5.31,1.47c1.16,0.18,2.33,0.29,3.49,0.35c0.06,1.16,0.17,2.33,0.35,3.49
			c0.29,1.77,0.69,3.54,1.47,5.31c0.79-1.77,1.18-3.54,1.47-5.31c0.18-1.17,0.29-2.33,0.35-3.5c1.16-0.06,2.33-0.17,3.49-0.35
			C1181.29,436.34,1183.06,435.95,1184.84,435.17z"/>
	</g>
	<g>
		<path d="M1098.73,392.65c-2.51-1.11-5.01-1.66-7.52-2.08c-1.65-0.26-3.3-0.41-4.95-0.5c-0.08-1.65-0.24-3.3-0.5-4.95
			c-0.42-2.51-0.97-5.01-2.08-7.52c-1.11,2.51-1.66,5.01-2.08,7.52c-0.26,1.65-0.41,3.29-0.5,4.94c-1.65,0.08-3.3,0.24-4.95,0.5
			c-2.51,0.41-5.01,0.97-7.52,2.08c2.51,1.11,5.01,1.67,7.52,2.08c1.65,0.26,3.29,0.41,4.94,0.49c0.08,1.65,0.24,3.29,0.49,4.94
			c0.41,2.51,0.97,5.01,2.08,7.52c1.11-2.51,1.67-5.01,2.08-7.52c0.26-1.65,0.41-3.3,0.5-4.95c1.65-0.08,3.29-0.24,4.94-0.5
			C1093.72,394.31,1096.22,393.76,1098.73,392.65z"/>
	</g>
	<g>
		<path d="M912.79,482.46c-1.77-0.78-3.54-1.17-5.31-1.47c-1.17-0.18-2.33-0.29-3.5-0.35c-0.06-1.17-0.17-2.33-0.35-3.5
			c-0.29-1.77-0.68-3.54-1.47-5.31c-0.78,1.77-1.17,3.54-1.47,5.31c-0.18,1.16-0.29,2.33-0.35,3.49c-1.17,0.06-2.33,0.17-3.5,0.35
			c-1.77,0.29-3.54,0.69-5.31,1.47c1.77,0.79,3.54,1.18,5.31,1.47c1.16,0.18,2.33,0.29,3.49,0.35c0.06,1.16,0.17,2.33,0.35,3.49
			c0.29,1.77,0.69,3.54,1.47,5.31c0.79-1.77,1.18-3.54,1.47-5.31c0.18-1.17,0.29-2.33,0.35-3.5c1.16-0.06,2.33-0.17,3.49-0.35
			C909.25,483.63,911.02,483.24,912.79,482.46z"/>
	</g>
	<g>
		<path d="M824.27,546.33c-1.77-0.78-3.54-1.17-5.31-1.47c-1.17-0.18-2.33-0.29-3.5-0.35c-0.06-1.17-0.17-2.33-0.35-3.5
			c-0.29-1.77-0.68-3.54-1.47-5.31c-0.78,1.77-1.17,3.54-1.47,5.31c-0.18,1.16-0.29,2.33-0.35,3.49c-1.17,0.06-2.33,0.17-3.5,0.35
			c-1.77,0.29-3.54,0.69-5.31,1.47c1.77,0.79,3.54,1.18,5.31,1.47c1.16,0.18,2.33,0.29,3.49,0.35c0.06,1.16,0.17,2.33,0.35,3.49
			c0.29,1.77,0.69,3.54,1.47,5.31c0.79-1.77,1.18-3.54,1.47-5.31c0.18-1.17,0.29-2.33,0.35-3.5c1.16-0.06,2.33-0.17,3.49-0.35
			C820.73,547.5,822.5,547.11,824.27,546.33z"/>
	</g>
	<g>
		<path d="M746.96,584.59c-1.77-0.78-3.54-1.17-5.31-1.47c-1.17-0.18-2.33-0.29-3.5-0.35c-0.06-1.17-0.17-2.33-0.35-3.5
			c-0.29-1.77-0.68-3.54-1.47-5.31c-0.78,1.77-1.17,3.54-1.47,5.31c-0.18,1.16-0.29,2.33-0.35,3.49c-1.17,0.06-2.33,0.17-3.5,0.35
			c-1.77,0.29-3.54,0.69-5.31,1.47c1.77,0.79,3.54,1.18,5.31,1.47c1.16,0.18,2.33,0.29,3.49,0.35c0.06,1.16,0.17,2.33,0.35,3.49
			c0.29,1.77,0.69,3.54,1.47,5.31c0.79-1.77,1.18-3.54,1.47-5.31c0.18-1.17,0.29-2.33,0.35-3.5c1.16-0.06,2.33-0.17,3.49-0.35
			C743.42,585.76,745.19,585.37,746.96,584.59z"/>
	</g>
	<g>
		<path d="M1146.5,503.72c-1.77-0.78-3.54-1.17-5.31-1.47c-1.17-0.18-2.33-0.29-3.5-0.35c-0.06-1.17-0.17-2.33-0.35-3.5
			c-0.29-1.77-0.68-3.54-1.47-5.31c-0.78,1.77-1.17,3.54-1.47,5.31c-0.18,1.16-0.29,2.33-0.35,3.49c-1.17,0.06-2.33,0.17-3.5,0.35
			c-1.77,0.29-3.54,0.69-5.31,1.47c1.77,0.79,3.54,1.18,5.31,1.47c1.16,0.18,2.33,0.29,3.49,0.35c0.06,1.16,0.17,2.33,0.35,3.49
			c0.29,1.77,0.69,3.54,1.47,5.31c0.79-1.77,1.18-3.54,1.47-5.31c0.18-1.17,0.29-2.33,0.35-3.5c1.16-0.06,2.33-0.17,3.49-0.35
			C1142.96,504.89,1144.73,504.5,1146.5,503.72z"/>
	</g>
	<g>
		<path d="M1081.94,485.14c-1.77-0.78-3.54-1.17-5.31-1.47c-1.17-0.18-2.33-0.29-3.5-0.35c-0.06-1.17-0.17-2.33-0.35-3.5
			c-0.29-1.77-0.68-3.54-1.47-5.31c-0.78,1.77-1.17,3.54-1.47,5.31c-0.18,1.16-0.29,2.33-0.35,3.49c-1.17,0.06-2.33,0.17-3.5,0.35
			c-1.77,0.29-3.54,0.69-5.31,1.47c1.77,0.79,3.54,1.18,5.31,1.47c1.16,0.18,2.33,0.29,3.49,0.35c0.06,1.16,0.17,2.33,0.35,3.49
			c0.29,1.77,0.69,3.54,1.47,5.31c0.79-1.77,1.18-3.54,1.47-5.31c0.18-1.17,0.29-2.33,0.35-3.5c1.16-0.06,2.33-0.17,3.49-0.35
			C1078.4,486.31,1080.17,485.92,1081.94,485.14z"/>
	</g>
	<g>
		<path d="M1220.23,556.96c-0.89-0.39-1.77-0.59-2.66-0.73c-0.58-0.09-1.17-0.15-1.75-0.18c-0.03-0.58-0.09-1.17-0.18-1.75
			c-0.15-0.89-0.34-1.77-0.73-2.66c-0.39,0.89-0.59,1.77-0.73,2.66c-0.09,0.58-0.15,1.16-0.18,1.75c-0.58,0.03-1.17,0.08-1.75,0.17
			c-0.89,0.15-1.77,0.34-2.66,0.74c0.89,0.39,1.77,0.59,2.66,0.74c0.58,0.09,1.16,0.15,1.75,0.17c0.03,0.58,0.08,1.16,0.17,1.75
			c0.15,0.89,0.34,1.77,0.74,2.66c0.39-0.89,0.59-1.77,0.74-2.66c0.09-0.58,0.15-1.17,0.18-1.75c0.58-0.03,1.16-0.09,1.75-0.18
			C1218.46,557.54,1219.34,557.35,1220.23,556.96z"/>
	</g>
</g>
</svg>
